<svg xmlns="http://www.w3.org/2000/svg" width="1080" height="1920" viewBox="0 0 1080 1920"><rect width="100%" height="100%" fill="#DDDDDD"/><path fill="#999999" d="M256.625 990.67h14.82v10.54h-45.6v-10.54h16.7v-48.06q0-2.85.17-5.87l-11.85 9.92q-1.03.8-2.02 1-1 .2-1.89.03-.88-.17-1.56-.6-.69-.43-1.03-.94l-4.45-6.1 25.14-21.38h11.57v72Zm85.22-30.67q0 10.77-2.31 18.72-2.31 7.95-6.38 13.14-4.08 5.19-9.64 7.73-5.56 2.53-12 2.53t-11.94-2.53q-5.5-2.54-9.55-7.73-4.04-5.19-6.32-13.14-2.28-7.95-2.28-18.72 0-10.83 2.28-18.75 2.28-7.93 6.32-13.11 4.05-5.19 9.55-7.73 5.5-2.53 11.94-2.53 6.44 0 12 2.53 5.56 2.54 9.64 7.73 4.07 5.18 6.38 13.11 2.31 7.92 2.31 18.75Zm-14.54 0q0-8.95-1.31-14.82-1.31-5.87-3.5-9.35-2.2-3.48-5.05-4.87-2.85-1.4-5.93-1.4-3.02 0-5.84 1.4-2.82 1.39-4.99 4.87-2.16 3.48-3.44 9.35-1.29 5.87-1.29 14.82t1.29 14.82q1.28 5.87 3.44 9.35 2.17 3.47 4.99 4.87 2.82 1.4 5.84 1.4 3.08 0 5.93-1.4 2.85-1.4 5.05-4.87 2.19-3.48 3.5-9.35 1.31-5.87 1.31-14.82Zm50.45 31.12q3.47 0 6.1-1 2.62-.99 4.41-2.76 1.8-1.77 2.71-4.22.91-2.45.91-5.3 0-6.78-3.76-10.26-3.76-3.48-10.37-3.48-6.61 0-10.38 3.48-3.76 3.48-3.76 10.26 0 2.85.91 5.3.92 2.45 2.71 4.22 1.8 1.77 4.42 2.76 2.62 1 6.1 1Zm0-62.64q-3.14 0-5.42.97t-3.79 2.59q-1.51 1.62-2.22 3.73-.71 2.11-.71 4.45 0 2.45.6 4.76.59 2.31 2.02 4.1 1.42 1.8 3.76 2.88 2.34 1.09 5.76 1.09t5.75-1.09q2.34-1.08 3.77-2.88 1.42-1.79 2.02-4.1.6-2.31.6-4.76 0-2.34-.74-4.45-.74-2.11-2.23-3.73-1.48-1.62-3.76-2.59-2.28-.97-5.41-.97Zm13.91 29.75q7.52 2.45 11.11 7.5 3.59 5.04 3.59 12.34 0 5.47-2.08 9.92-2.08 4.44-5.84 7.58-3.76 3.13-9.04 4.84-5.27 1.71-11.65 1.71-6.39 0-11.66-1.71-5.27-1.71-9.03-4.84-3.77-3.14-5.85-7.58-2.08-4.45-2.08-9.92 0-7.3 3.59-12.34 3.6-5.05 11.12-7.5-5.99-2.51-8.98-7.12-2.99-4.62-2.99-11.12 0-4.67 1.91-8.72 1.91-4.05 5.33-7.04t8.18-4.67q4.76-1.68 10.46-1.68 5.7 0 10.46 1.68 4.76 1.68 8.18 4.67t5.33 7.04q1.91 4.05 1.91 8.72 0 6.5-3 11.12-2.99 4.61-8.97 7.12Zm82.42 1.77q0 10.77-2.31 18.72-2.31 7.95-6.38 13.14-4.08 5.19-9.64 7.73-5.56 2.53-12 2.53t-11.94-2.53q-5.5-2.54-9.55-7.73-4.04-5.19-6.32-13.14-2.28-7.95-2.28-18.72 0-10.83 2.28-18.75 2.28-7.93 6.32-13.11 4.05-5.19 9.55-7.73 5.5-2.53 11.94-2.53 6.44 0 12 2.53 5.56 2.54 9.64 7.73 4.07 5.18 6.38 13.11 2.31 7.92 2.31 18.75Zm-14.54 0q0-8.95-1.31-14.82-1.31-5.87-3.5-9.35-2.2-3.48-5.05-4.87-2.85-1.4-5.93-1.4-3.02 0-5.84 1.4-2.82 1.39-4.99 4.87-2.16 3.48-3.44 9.35-1.29 5.87-1.29 14.82t1.29 14.82q1.28 5.87 3.44 9.35 2.17 3.47 4.99 4.87 2.82 1.4 5.84 1.4 3.08 0 5.93-1.4 2.85-1.4 5.05-4.87 2.19-3.48 3.5-9.35 1.31-5.87 1.31-14.82Zm105.05 22.34-7.46 7.36-19.33-19.33-19.49 19.44-7.47-7.35 19.5-19.55-18.59-18.59 7.41-7.41 18.59 18.59 18.46-18.47 7.53 7.41-18.53 18.52 19.38 19.38Zm78.04 8.33h14.82v10.54h-45.6v-10.54h16.7v-48.06q0-2.85.17-5.87l-11.86 9.92q-1.02.8-2.02 1-1 .2-1.88.03-.88-.17-1.57-.6-.68-.43-1.03-.94l-4.44-6.1 25.14-21.38h11.57v72Zm40.75-47.14q0 6.89 3.56 10.51 3.57 3.62 10.12 3.62 3.42 0 6.1-1.08 2.68-1.08 4.5-2.96 1.83-1.89 2.77-4.45.94-2.57.94-5.53 0-3.36-1.03-6.01-1.02-2.65-2.9-4.48-1.88-1.82-4.48-2.79-2.59-.97-5.67-.97-3.19 0-5.76 1.05-2.56 1.06-4.39 2.94-1.82 1.88-2.79 4.47-.97 2.6-.97 5.68Zm-6.89 57.68 25.59-31.98q.97-1.19 1.82-2.33.86-1.14 1.66-2.28-2.85 1.82-6.28 2.76-3.41.94-7.18.94-4.27 0-8.38-1.48-4.1-1.48-7.29-4.48-3.19-2.99-5.16-7.41-1.97-4.41-1.97-10.34 0-5.53 2.05-10.38 2.06-4.84 5.76-8.49 3.71-3.65 8.89-5.76 5.19-2.1 11.46-2.1 6.33 0 11.37 1.99 5.05 2 8.61 5.59 3.56 3.59 5.47 8.6 1.91 5.02 1.91 11 0 3.82-.65 7.24-.66 3.42-1.86 6.59-1.19 3.16-2.9 6.18-1.71 3.02-3.82 5.99l-18.87 26.9q-.97 1.37-2.91 2.31-1.93.94-4.39.94h-12.93Zm88.97-13.11h21.15q2.28 0 3.62 1.28 1.34 1.29 1.34 3.39v8.44h-56.55v-4.67q0-1.43.6-3 .6-1.56 1.91-2.82l25.03-25.08q3.13-3.19 5.61-6.1 2.48-2.9 4.13-5.75 1.66-2.85 2.54-5.79.88-2.94.88-6.18 0-2.97-.85-5.22-.86-2.25-2.43-3.79-1.56-1.54-3.76-2.31-2.19-.77-4.93-.77-2.51 0-4.64.71-2.14.72-3.79 2-1.66 1.28-2.8 2.99-1.14 1.71-1.71 3.76-.97 2.63-2.5 3.48-1.54.86-4.45.4l-7.41-1.31q.85-5.93 3.3-10.4 2.46-4.48 6.13-7.47 3.68-2.99 8.44-4.5 4.76-1.51 10.23-1.51 5.7 0 10.43 1.68 4.73 1.68 8.1 4.76 3.36 3.08 5.24 7.41 1.88 4.33 1.88 9.63 0 4.56-1.34 8.44-1.34 3.87-3.59 7.41-2.25 3.53-5.27 6.84-3.02 3.3-6.33 6.72l-18.58 18.98q2.68-.8 5.33-1.22 2.65-.43 5.04-.43Zm94.62-28.1q0 10.77-2.31 18.72-2.3 7.95-6.38 13.14t-9.63 7.73q-5.56 2.53-12 2.53t-11.94-2.53q-5.5-2.54-9.55-7.73-4.05-5.19-6.33-13.14-2.28-7.95-2.28-18.72 0-10.83 2.28-18.75 2.28-7.93 6.33-13.11 4.05-5.19 9.55-7.73 5.5-2.53 11.94-2.53 6.44 0 12 2.53 5.55 2.54 9.63 7.73 4.08 5.18 6.38 13.11 2.31 7.92 2.31 18.75Zm-14.53 0q0-8.95-1.31-14.82-1.31-5.87-3.51-9.35-2.19-3.48-5.04-4.87-2.85-1.4-5.93-1.4-3.02 0-5.84 1.4-2.83 1.39-4.99 4.87-2.17 3.48-3.45 9.35-1.28 5.87-1.28 14.82t1.28 14.82q1.28 5.87 3.45 9.35 2.16 3.47 4.99 4.87 2.82 1.4 5.84 1.4 3.08 0 5.93-1.4 2.85-1.4 5.04-4.87 2.2-3.48 3.51-9.35 1.31-5.87 1.31-14.82Z"/></svg>